<?xml version="1.0" standalone="no"?>
<!DOCTYPE svg PUBLIC "-//W3C//DTD SVG 20010904//EN"
 "http://www.w3.org/TR/2001/REC-SVG-20010904/DTD/svg10.dtd">
<svg version="1.0" xmlns="http://www.w3.org/2000/svg"
 width="512.000000pt" height="512.000000pt" viewBox="0 0 512.000000 512.000000"
 preserveAspectRatio="xMidYMid meet">
<metadata>
Created by potrace 1.11, written by Peter Selinger 2001-2013
</metadata>
<g transform="translate(0.000000,512.000000) scale(0.100000,-0.100000)"
fill="#000000" stroke="none">
<path d="M3430 4803 c-77 -12 -228 -52 -868 -228 -1554 -426 -1516 -414 -1722
-523 -218 -116 -344 -254 -393 -433 -41 -145 -42 -187 -42 -1479 0 -1186 1
-1248 19 -1305 63 -204 207 -348 411 -411 58 -18 129 -19 1725 -19 1596 0
1667 1 1725 19 204 63 348 207 411 411 18 57 19 117 19 1240 0 929 -3 1192
-13 1235 -7 30 -29 89 -49 130 -51 103 -177 230 -283 283 -110 54 -172 67
-332 67 l-138 0 -1 88 c-1 48 0 91 1 97 5 28 -2 375 -10 470 -17 199 -56 275
-169 333 -61 30 -70 32 -165 31 -56 -1 -112 -4 -126 -6z m185 -213 c53 -20 60
-58 62 -350 2 -146 5 -271 8 -277 2 -7 0 -13 -6 -13 -6 0 -6 -7 1 -20 8 -14 8
-20 0 -20 -8 0 -8 -6 0 -20 8 -15 8 -20 -2 -20 -9 0 -9 -3 0 -12 8 -8 9 -15 1
-25 -8 -9 -8 -13 -1 -13 6 0 9 -7 6 -15 -5 -13 -168 -15 -1376 -15 -1459 0
-1429 1 -1520 -46 -46 -24 -32 -7 35 42 142 105 294 166 687 275 810 225 1812
498 1880 513 134 28 184 31 225 16z m576 -1030 c121 -37 217 -118 272 -230
l32 -65 3 -1154 c3 -1287 6 -1224 -66 -1330 -74 -108 -190 -161 -351 -161
l-86 0 123 123 c67 67 122 126 122 130 0 4 -197 7 -438 7 l-437 0 -130 -130
-130 -130 -102 0 -103 0 -2 545 -3 545 -448 447 -447 448 0 -900 0 -899 -92
-93 -93 -93 -430 0 c-485 0 -511 3 -604 68 -30 21 -72 63 -93 93 -72 103 -69
43 -66 1320 l3 1145 39 80 c44 88 126 178 191 209 94 45 51 44 1701 44 1535 1
1573 1 1635 -19z"/>
<path d="M1090 3058 l1 -443 222 -222 c122 -123 229 -223 237 -223 8 0 -32
-47 -90 -105 l-105 -105 318 -318 317 -317 0 1088 c0 598 -2 1087 -4 1087 -2
0 -104 -98 -226 -217 l-221 -218 -217 218 c-119 119 -220 217 -224 217 -5 0
-8 -199 -8 -442z"/>
<path d="M3843 2340 c-91 -36 -163 -142 -163 -240 0 -52 31 -131 68 -172 129
-143 369 -102 437 75 21 57 17 165 -9 214 -60 118 -208 172 -333 123z"/>
</g>
</svg>
